<?xml version="1.0" encoding="UTF-8" standalone="no"?>
<svg
   xmlns:dc="http://purl.org/dc/elements/1.1/"
   xmlns:cc="http://creativecommons.org/ns#"
   xmlns:rdf="http://www.w3.org/1999/02/22-rdf-syntax-ns#"
   xmlns:svg="http://www.w3.org/2000/svg"
   xmlns="http://www.w3.org/2000/svg"
   xmlns:sodipodi="http://sodipodi.sourceforge.net/DTD/sodipodi-0.dtd"
   xmlns:inkscape="http://www.inkscape.org/namespaces/inkscape"
   width="24"
   height="24"
   version="1.1"
   id="svg3725"
   sodipodi:docname="force.svg"
   inkscape:version="0.92.4 (5da689c313, 2019-01-14)"
   style="clip-rule:evenodd;fill-rule:evenodd">
  <metadata
     id="metadata3731">
    <rdf:RDF>
      <cc:Work
         rdf:about="">
        <dc:format>image/svg+xml</dc:format>
        <dc:type
           rdf:resource="http://purl.org/dc/dcmitype/StillImage" />
        <dc:title></dc:title>
      </cc:Work>
    </rdf:RDF>
  </metadata>
  <defs
     id="defs3729">
    <clipPath
       clipPathUnits="userSpaceOnUse"
       id="clipPath3761">
      <rect
         id="rect3763"
         width="19.509933"
         height="5.2052979"
         x="2.4635761"
         y="-7.129771e-09"
         style="stroke-width:0.90484804" />
    </clipPath>
    <clipPath
       clipPathUnits="userSpaceOnUse"
       id="clipPath3774">
      <rect
         id="rect3776"
         width="14.155892"
         height="5.274014"
         x="4.9988585"
         y="0.00046808092"
         style="stroke-width:0.71093369" />
    </clipPath>
    <clipPath
       clipPathUnits="userSpaceOnUse"
       id="clipPath3780">
      <rect
         id="rect3782"
         width="13.993839"
         height="5.0122113"
         x="5.0038528"
         y="-0.013015324"
         style="stroke-width:2.61303878" />
    </clipPath>
  </defs>
  <sodipodi:namedview
     pagecolor="#ffffff"
     bordercolor="#666666"
     borderopacity="1"
     objecttolerance="10"
     gridtolerance="10"
     guidetolerance="10"
     inkscape:pageopacity="0"
     inkscape:pageshadow="2"
     inkscape:window-width="2560"
     inkscape:window-height="1377"
     id="namedview3727"
     showgrid="false"
     inkscape:zoom="22.627417"
     inkscape:cx="-1.8985131"
     inkscape:cy="20.118017"
     inkscape:window-x="-8"
     inkscape:window-y="-8"
     inkscape:window-maximized="1"
     inkscape:current-layer="svg3725"
     inkscape:pagecheckerboard="false"
     fit-margin-top="0"
     fit-margin-left="0"
     fit-margin-right="0"
     fit-margin-bottom="0" />
  <path
     d="M 24,24 H 0 V 22 H 2 V 8 H 0 V 6 h 24 v 2 h -2 v 14 h 2 z M 11,19 H 9 v 4 h 2 z m 4,0 h -2 v 4 h 2 z M 20,8 H 4 v 14 h 3 v -5 h 10 v 5 h 3 z m -6,7 h -4 v -5 h 4 z M 9,15 H 5 v -5 h 4 z m 10,0 h -4 v -5 h 4 z M 9,3 V 4 C 9,4.551 8.553,5 8,5 7.448,5 7,4.552 7,4 V 1 C 7,0.448 7.448,0 8,0 8.553,0 9,0.449 9,1 v 1 h 6 V 1 c 0,-0.551 0.447,-1 1,-1 0.553,0 1,0.449 1,1 V 4 C 17,4.551 16.553,5 16,5 15.447,5 15,4.551 15,4 V 3 Z m 9.5,0 V 3.5 C 18.5,3.776 18.276,4 18,4 17.724,4 17.5,3.776 17.5,3.5 v -2 C 17.5,1.224 17.724,1 18,1 c 0.276,0 0.5,0.224 0.5,0.5 V 2 H 19 V 3 Z M 5.5,2 V 1.5 C 5.5,1.224 5.724,1 6,1 6.276,1 6.5,1.224 6.5,1.5 v 2 C 6.5,3.776 6.276,4 6,4 5.724,4 5.5,3.776 5.5,3.5 V 3 H 5 V 2 Z"
     id="path3723"
     clip-path="url(#clipPath3780)"
     inkscape:connector-curvature="0"
     transform="matrix(1.7136719,0,0,1.8393258,-8.5604473,7.4117649)" />
</svg>
