<?xml version="1.0" encoding="UTF-8" standalone="no"?>
<svg
   xmlns:dc="http://purl.org/dc/elements/1.1/"
   xmlns:cc="http://creativecommons.org/ns#"
   xmlns:rdf="http://www.w3.org/1999/02/22-rdf-syntax-ns#"
   xmlns:svg="http://www.w3.org/2000/svg"
   xmlns="http://www.w3.org/2000/svg"
   xmlns:sodipodi="http://sodipodi.sourceforge.net/DTD/sodipodi-0.dtd"
   xmlns:inkscape="http://www.inkscape.org/namespaces/inkscape"
   width="24"
   height="24"
   viewBox="0 0 24 24"
   version="1.1"
   id="svg4"
   sodipodi:docname="multiplication.svg"
   inkscape:version="0.92.4 (5da689c313, 2019-01-14)">
  <metadata
     id="metadata10">
    <rdf:RDF>
      <cc:Work
         rdf:about="">
        <dc:format>image/svg+xml</dc:format>
        <dc:type
           rdf:resource="http://purl.org/dc/dcmitype/StillImage" />
      </cc:Work>
    </rdf:RDF>
  </metadata>
  <defs
     id="defs8" />
  <sodipodi:namedview
     pagecolor="#ffffff"
     bordercolor="#666666"
     borderopacity="1"
     objecttolerance="10"
     gridtolerance="10"
     guidetolerance="10"
     inkscape:pageopacity="0"
     inkscape:pageshadow="2"
     inkscape:window-width="2736"
     inkscape:window-height="1699"
     id="namedview6"
     showgrid="false"
     inkscape:zoom="39.333333"
     inkscape:cx="13.822068"
     inkscape:cy="12.323754"
     inkscape:window-x="-13"
     inkscape:window-y="-13"
     inkscape:window-maximized="1"
     inkscape:current-layer="svg4" />
  <path
     d="M12 2c5.514 0 10 4.486 10 10s-4.486 10-10 10-10-4.486-10-10 4.486-10 10-10zm0-2c-6.627 0-12 5.373-12 12s5.373 12 12 12 12-5.373 12-12-5.373-12-12-12z"
     id="path2" />
  <rect
     style="fill:#000000;fill-opacity:1;fill-rule:nonzero;stroke-width:0.26144472"
     id="rect4526"
     width="0.99999911"
     height="2.9502523"
     x="3.7654486"
     y="13.656003"
     transform="matrix(0.96677506,-0.25562859,0.25041579,0.96813838,0,0)" />
  <rect
     style="fill:#000000;fill-opacity:1;fill-rule:nonzero;stroke-width:0.31739837"
     id="rect4526-6"
     width="0.99999946"
     height="4.3481913"
     x="7.5879421"
     y="-14.929708"
     transform="matrix(4.0916703e-4,0.99999992,-0.99999514,0.00311636,0,0)" />
  <rect
     style="fill:#000000;fill-opacity:1;fill-rule:nonzero;stroke-width:0.41760191"
     id="rect4526-67"
     width="0.99999207"
     height="7.5270944"
     x="12.096632"
     y="4.7372937"
     transform="matrix(0.96963986,0.24453741,-0.24165839,0.97036139,0,0)" />
  <rect
     style="fill:#000000;fill-opacity:1;fill-rule:nonzero;stroke-width:0.26144472"
     id="rect4526-2"
     width="0.99999911"
     height="2.9502523"
     x="13.896027"
     y="7.6943622"
     transform="matrix(0.99994735,-0.0102615,0.00487351,0.99998812,0,0)" />
  <path
     sodipodi:type="star"
     id="path31"
     sodipodi:sides="3"
     sodipodi:cx="8.8887491"
     sodipodi:cy="15.836699"
     sodipodi:r1="1.2460221"
     sodipodi:r2="0.62301105"
     sodipodi:arg1="1.5912017"
     sodipodi:arg2="2.6383992"
     inkscape:flatsided="false"
     inkscape:rounded="0"
     inkscape:randomized="0"
     d="M 8.8633253,17.082461 8.3429621,16.13713 7.8225989,15.1918 l 1.0788621,0.02202 1.0788622,0.02202 -0.5584989,0.923313 z"
     inkscape:transform-center-x="-0.011513653"
     inkscape:transform-center-y="0.44990807"
     transform="matrix(0.90573873,0,0,1.497539,0.69565145,-7.6908447)" />
  <path
     sodipodi:type="star"
     id="path31-6"
     sodipodi:sides="3"
     sodipodi:cx="8.8887491"
     sodipodi:cy="15.836699"
     sodipodi:r1="1.2460221"
     sodipodi:r2="0.62301105"
     sodipodi:arg1="1.5912017"
     sodipodi:arg2="2.6383992"
     inkscape:flatsided="false"
     inkscape:rounded="0"
     inkscape:randomized="0"
     d="M 8.8633253,17.082461 8.3429621,16.13713 7.8225989,15.1918 l 1.0788621,0.02202 1.0788622,0.02202 -0.5584989,0.923313 z"
     inkscape:transform-center-x="-0.011513653"
     inkscape:transform-center-y="0.44990807"
     transform="matrix(0.90573873,0,0,1.497539,0.70878853,-7.7676769)" />
  <path
     sodipodi:type="star"
     id="path31-6-0"
     sodipodi:sides="3"
     sodipodi:cx="8.8887491"
     sodipodi:cy="15.836699"
     sodipodi:r1="1.2460221"
     sodipodi:r2="0.62301105"
     sodipodi:arg1="1.5912017"
     sodipodi:arg2="2.6383992"
     inkscape:flatsided="false"
     inkscape:rounded="0"
     inkscape:randomized="0"
     d="M 8.8633253,17.082461 8.3429621,16.13713 7.8225989,15.1918 l 1.0788621,0.02202 1.0788622,0.02202 -0.5584989,0.923313 z"
     inkscape:transform-center-x="-0.011513653"
     inkscape:transform-center-y="-0.051040491"
     transform="matrix(0.90573873,0,0,-0.16988908,0.69565145,17.640388)" />
</svg>
